<svg xmlns="http://www.w3.org/2000/svg" width="2560" height="1536" style="shape-rendering:geometricPrecision;text-rendering:geometricPrecision;image-rendering:optimizeQuality;fill-rule:evenodd;clip-rule:evenodd"><path style="opacity:1" fill="#fefefe" d="M.5-.5h298c241.354 145.1 482.854 290.1 724.5 435 .5-145 .67-290 .5-435h102v614H-.5v-102c184.667.167 369.334 0 554-.5A311359.01 311359.01 0 0 1-.5 178.5v-59a162908.853 162908.853 0 0 1 653 391.5c66.667.667 133.333.667 200 0A528150.308 528150.308 0 0 1 .5-.5z"/><path style="opacity:1" fill="#012169" d="M298.5-.5h725c.17 145 0 290-.5 435A739774.241 739774.241 0 0 1 298.5-.5z"/><path style="opacity:1" fill="#c8112e" d="M1125.5-.5h308v614h1126v308h-1126v614h-308v-614H-.5v-308h1126V-.5z"/><path style="opacity:1" fill="#fefefe" d="M1433.5-.5h102c-.17 145 0 290 .5 435 241.65-144.9 483.15-289.9 724.5-435h99a1094488.182 1094488.182 0 0 0-823.5 495c-.5 5.657-.67 11.324-.5 17 57.33.167 114.67 0 172-.5a801493.382 801493.382 0 0 0 851-511.5h1v179a313888.929 313888.929 0 0 1-554 332.5c184.67.5 369.33.667 554 .5v102h-1126V-.5z"/><path style="opacity:1" fill="#012169" d="M1535.5-.5h725c-241.35 145.1-482.85 290.1-724.5 435-.5-145-.67-290-.5-435z"/><path style="opacity:1" fill="#c8112e" d="M2359.5-.5h199a801493.382 801493.382 0 0 1-851 511.5c-57.33.5-114.67.667-172 .5-.17-5.676 0-11.343.5-17 274.48-165.152 548.98-330.152 823.5-495zM-.5-.5h1a528150.308 528150.308 0 0 0 852 511.5c-66.667.667-133.333.667-200 0A162908.853 162908.853 0 0 0-.5 119.5V-.5z"/><path style="opacity:1" fill="#012169" d="M-.5 178.5a311359.01 311359.01 0 0 0 554 332.5c-184.666.5-369.333.667-554 .5v-333zM2559.5 178.5v333c-184.67.167-369.33 0-554-.5a313888.929 313888.929 0 0 0 554-332.5z"/><path style="opacity:1" fill="#fefefe" d="M-.5 921.5h1126v614h-102c.17-145 0-290-.5-435a739774.241 739774.241 0 0 0-724.5 435h-99c274.519-164.85 549.019-329.85 823.5-495 .5-5.66.67-11.32.5-17-57.334-.17-114.668 0-172 .5a790583.831 790583.831 0 0 0-851 511.5h-1v-179a307233.128 307233.128 0 0 1 554-332.5c-184.666-.5-369.333-.67-554-.5v-102zM2559.5 921.5v102c-184.67-.17-369.33 0-554 .5 184.81 110.66 369.48 221.49 554 332.5v59a162111.638 162111.638 0 0 1-653-391.5 9950.5 9950.5 0 0 0-200 0 521549.38 521549.38 0 0 1 852 511.5h-298c-241.35-145.1-482.85-290.1-724.5-435-.5 145-.67 290-.5 435h-102v-614h1126z"/><path style="opacity:1" fill="#012169" d="M-.5 1023.5c184.667-.17 369.334 0 554 .5a307233.128 307233.128 0 0 0-554 332.5v-333z"/><path style="opacity:1" fill="#c8112e" d="M199.5 1535.5H.5a790583.831 790583.831 0 0 1 851-511.5c57.332-.5 114.666-.67 172-.5.17 5.68 0 11.34-.5 17a1112124.483 1112124.483 0 0 1-823.5 495zM2559.5 1415.5v120h-1a521549.38 521549.38 0 0 0-852-511.5 9950.5 9950.5 0 0 1 200 0c217.39 131.03 435.06 261.53 653 391.5z"/><path style="opacity:1" fill="#012169" d="M2559.5 1023.5v333a309696.177 309696.177 0 0 0-554-332.5c184.67-.5 369.33-.67 554-.5zM1023.5 1535.5h-725c241.354-145.1 482.854-290.1 724.5-435 .5 145 .67 290 .5 435zM2260.5 1535.5h-725c-.17-145 0-290 .5-435 241.65 144.9 483.15 289.9 724.5 435z"/></svg>